<?xml version="1.0" standalone="no"?>
<!DOCTYPE svg PUBLIC "-//W3C//DTD SVG 20010904//EN"
 "http://www.w3.org/TR/2001/REC-SVG-20010904/DTD/svg10.dtd">
<svg version="1.0" xmlns="http://www.w3.org/2000/svg"
 width="512.000000pt" height="512.000000pt" viewBox="0 0 512.000000 512.000000"
 preserveAspectRatio="xMidYMid meet">

<g transform="translate(0.000000,512.000000) scale(0.100000,-0.100000)"
fill="#000000" stroke="none">
<path d="M3345 2979 c-584 -73 -1067 -522 -1186 -1102 -39 -192 -37 -353 6
-557 116 -539 533 -957 1075 -1075 114 -25 364 -31 485 -12 456 73 835 352
1035 760 97 200 140 384 140 607 0 223 -43 407 -140 607 -140 285 -352 495
-654 644 -243 119 -492 161 -761 128z m233 -649 c18 -11 37 -32 42 -46 6 -14
10 -146 10 -300 l0 -274 279 0 c273 0 279 0 312 -23 65 -43 62 -137 -5 -178
-28 -17 -55 -19 -308 -19 l-278 0 0 -275 c0 -227 -3 -281 -15 -305 -17 -32
-61 -60 -95 -60 -34 0 -78 28 -95 60 -12 24 -15 78 -15 305 l0 275 -275 0
c-227 0 -281 3 -305 15 -33 17 -60 61 -60 97 0 33 36 87 66 98 14 6 146 10
300 10 l274 0 0 278 c0 259 1 279 20 310 33 54 91 66 148 32z"/>
</g>
</svg>
