<?xml version="1.0" standalone="no"?>
<!DOCTYPE svg PUBLIC "-//W3C//DTD SVG 20010904//EN"
 "http://www.w3.org/TR/2001/REC-SVG-20010904/DTD/svg10.dtd">
<svg version="1.0" xmlns="http://www.w3.org/2000/svg"
 width="96.000000pt" height="96.000000pt" viewBox="0 0 96.000000 96.000000"
 preserveAspectRatio="xMidYMid meet">

<g transform="translate(0.000000,96.000000) scale(0.100000,-0.100000)"
fill="#000000" stroke="none">
<path d="M140 820 c-19 -19 -20 -33 -20 -356 l0 -336 37 30 c21 17 58 51 83
76 l44 46 258 0 c245 0 259 1 278 20 19 19 20 33 20 260 0 227 -1 241 -20 260
-19 19 -33 20 -340 20 -307 0 -321 -1 -340 -20z m620 -160 c0 -20 -7 -20 -280
-20 -273 0 -280 0 -280 20 0 20 7 20 280 20 273 0 280 0 280 -20z m0 -100 c0
-20 -7 -20 -280 -20 -273 0 -280 0 -280 20 0 20 7 20 280 20 273 0 280 0 280
-20z m-240 -100 c0 -19 -7 -20 -160 -20 -153 0 -160 1 -160 20 0 19 7 20 160
20 153 0 160 -1 160 -20z"/>
</g>
</svg>
